<svg width="54" height="54" viewBox="0 0 54 54" fill="none" xmlns="http://www.w3.org/2000/svg">
<path fill-rule="evenodd" clip-rule="evenodd" d="M0.258926 5.18318L0 5.45804V9.33247V13.2069L0.258926 13.4818C0.401309 13.633 0.640723 13.7567 0.791016 13.7567C0.941309 13.7567 1.18072 13.633 1.32311 13.4818L1.58203 13.2069V9.89754V6.5883H4.6981H7.81429L8.0731 6.31333C8.40312 5.96297 8.40312 5.53354 8.0731 5.18318L7.81429 4.9082H4.16602H0.517746L0.258926 5.18318ZM45.9269 5.18318C45.7845 5.33439 45.668 5.58864 45.668 5.74825C45.668 5.90786 45.7845 6.16212 45.9269 6.31333L46.1857 6.5883H49.3019H52.418V9.89754V13.2069L52.6769 13.4818C53.0068 13.8322 53.4112 13.8322 53.7411 13.4818L54 13.2069V9.33247V5.45804L53.7411 5.18318L53.4823 4.9082H49.834H46.1857L45.9269 5.18318ZM5.82335 9.5837C3.92861 10.4085 3.69214 13.1193 5.41624 14.2512C7.13939 15.3826 9.32228 13.9539 9.15437 11.8045C9.02085 10.0944 7.29432 8.94335 5.82335 9.5837ZM7.09973 11.1988C7.92376 11.665 7.64828 12.9785 6.72838 12.9691C6.34131 12.9652 6.10664 12.8133 5.92344 12.448C5.72569 12.0536 5.78 11.7454 6.10907 11.396C6.43813 11.0465 6.72827 10.9888 7.09973 11.1988ZM11.2972 11.3766C11.1749 11.4844 11.0456 11.7331 11.01 11.9292C10.9577 12.2169 10.9975 12.3414 11.2159 12.5733L11.4865 12.8607H13.4768C15.4209 12.8607 15.4725 12.8546 15.6965 12.6015C16.0209 12.2347 15.9994 11.7063 15.6479 11.4128C15.3898 11.1972 15.2327 11.1806 13.4447 11.1806C11.7661 11.1806 11.491 11.2057 11.2972 11.3766ZM26.5049 11.4508C26.2117 11.7185 26.2087 11.7352 26.1724 13.2399L26.1357 14.7587L25.8032 14.8124C25.6204 14.8418 25.0436 14.8971 24.5215 14.9351C23.6871 14.996 22.2361 15.214 21.5448 15.3825C21.3436 15.4315 21.2131 15.2805 20.6243 14.3169C20.2362 13.6816 19.8249 13.1392 19.677 13.0678C19.1465 12.8111 18.4514 13.4326 18.6239 14.0096C18.6612 14.1346 18.9045 14.586 19.1645 15.0129C19.4245 15.4397 19.6137 15.8138 19.5851 15.8443C19.5564 15.8747 18.9706 16.103 18.2831 16.3518C17.5957 16.6006 16.541 17.0503 15.9394 17.3511L14.8457 17.8982L13.8623 17.2835C13.2847 16.9226 12.7535 16.6689 12.575 16.6689C12.0452 16.6689 11.6769 17.2833 11.8761 17.8348C11.9111 17.9316 12.2196 18.1914 12.5616 18.4121C12.9037 18.6327 13.1832 18.8474 13.1826 18.8891C13.1821 18.9309 12.8964 19.1603 12.5476 19.3989C10.8868 20.5354 8.24091 23.1373 7.452 24.41C6.76972 25.5106 6.67638 26.8388 7.20425 27.9326C7.84909 29.2686 10.3204 31.8061 12.5285 33.3992C13.5534 34.1386 13.9785 34.2175 14.3361 33.7348C14.7183 33.2189 14.5544 32.787 13.781 32.2721C12.4358 31.3765 10.638 29.7478 9.50801 28.4013C8.04632 26.6592 8.05697 26.117 9.58911 24.3023C11.9156 21.5466 15.4638 19.1342 19.0595 17.8636C19.8728 17.5762 20.587 17.3409 20.6465 17.3409C20.7058 17.3409 20.5442 17.5803 20.2871 17.873C19.1836 19.1291 18.2934 20.9122 17.9597 22.5347C17.7377 23.6145 17.7432 25.6842 17.9708 26.6935C18.3073 28.1854 18.8206 29.3767 19.586 30.4421L19.9455 30.9426L16.2218 34.8838C13.0911 38.1972 12.4309 38.8444 12.0762 38.947C11.8171 39.0218 10.4663 39.0692 8.57703 39.0696L5.49967 39.0702L5.28114 39.3654C5.03107 39.703 5.01483 39.8446 5.18168 40.2334C5.39768 40.7371 5.65924 40.7704 9.08824 40.7311L12.2923 40.6943L12.9752 40.3349C13.5308 40.0426 13.9987 39.6129 15.484 38.0308L17.3097 36.086L18.3235 36.4611C26.3312 39.4241 35.728 37.9907 42.2545 32.8107C44.2236 31.2479 46.2753 29.0341 46.8262 27.8776C47.3226 26.8359 47.2141 25.4846 46.548 24.41C45.7591 23.1373 43.1132 20.5354 41.4524 19.3989C41.1036 19.1603 40.8179 18.9309 40.8174 18.8891C40.8168 18.8474 41.0963 18.6327 41.4384 18.4121C41.7804 18.1914 42.0889 17.9316 42.1239 17.8348C42.325 17.278 41.9522 16.6689 41.4102 16.6689C41.2494 16.6689 40.6811 16.9439 40.1293 17.2889L39.1373 17.9087L38.5066 17.5707C37.7769 17.1794 36.1242 16.4743 35.0947 16.115C34.7032 15.9784 34.3828 15.8417 34.3828 15.8114C34.3828 15.7809 34.591 15.4142 34.8455 14.9964C35.1 14.5786 35.3388 14.1346 35.3761 14.0096C35.5486 13.4326 34.8535 12.8111 34.323 13.0678C34.175 13.1393 33.7631 13.6829 33.3731 14.3212C32.825 15.218 32.6451 15.435 32.4921 15.3834C32.0986 15.2508 29.4578 14.8778 28.8984 14.8758C27.8139 14.872 27.8691 14.9567 27.8275 13.2326C27.7913 11.7358 27.7882 11.7183 27.4951 11.4508C27.3323 11.3022 27.1096 11.1806 27 11.1806C26.8904 11.1806 26.6677 11.3022 26.5049 11.4508ZM28.1602 16.5642C29.7607 16.8387 31.0173 17.5051 32.2427 18.7294C35.1672 21.651 35.4606 26.3847 32.9244 29.728C31.9332 31.0346 30.2985 32.136 28.793 32.5116C27.8874 32.7374 26.0975 32.7352 25.2138 32.5072C24.4257 32.3039 22.9881 31.5996 22.5176 31.1865L22.2012 30.9086L22.8213 30.2392L23.4415 29.5697L23.9385 29.8944C24.5726 30.3087 25.2645 30.5686 25.499 30.4804C25.9816 30.2988 26.1785 29.8094 25.9847 29.2731C25.9484 29.1724 25.6001 28.9199 25.2109 28.7117C24.2802 28.214 23.6188 27.5133 23.1536 26.5322C22.8834 25.9625 22.6933 25.7003 22.4909 25.6187C22.1379 25.4761 21.8069 25.6191 21.5587 26.0215C21.3357 26.3828 21.4445 26.8434 21.9731 27.7755L22.3324 28.409L21.706 29.0633L21.0797 29.7177L20.8232 29.3817C20.1124 28.4503 19.5006 26.7098 19.3573 25.2103C19.2129 23.6993 19.6727 21.76 20.522 20.2975C21.0507 19.3871 22.2554 18.13 23.1215 17.585C24.6021 16.6534 26.4719 16.2745 28.1602 16.5642ZM34.9231 17.8574C37.4106 18.7364 39.9923 20.2093 42.021 21.907C43.0945 22.8053 45.0876 24.9942 45.3439 25.5565C45.7807 26.5148 45.6144 27.068 44.492 28.3913C41.5676 31.8386 37.6967 34.2658 33.1776 35.4859C31.0434 36.0622 29.2736 36.2919 27 36.2881C24.2479 36.2834 21.9374 35.9264 19.5667 35.1395L18.5304 34.7955L19.7819 33.4629C20.9634 32.205 21.0454 32.1396 21.2482 32.2949C22.1347 32.9746 23.2561 33.6116 24.1266 33.9301C25.1396 34.3006 25.1808 34.306 27 34.3067C28.8126 34.3073 28.8637 34.3006 29.8477 33.9399C31.2679 33.4192 32.3661 32.6929 33.4376 31.5658C35.3262 29.579 36.1911 27.4251 36.2032 24.6774C36.2149 22.0374 35.376 19.7707 33.6641 17.817C33.4348 17.5551 33.2953 17.3409 33.3544 17.3409C33.4133 17.3409 34.1192 17.5734 34.9231 17.8574ZM24.3634 19.0545C23.3694 19.5745 22.2648 20.7612 21.7849 21.8245C21.5788 22.2812 21.4102 22.7378 21.4102 22.839C21.4102 23.1759 21.8267 23.6133 22.1475 23.6133C22.6553 23.6133 22.783 23.4978 23.1242 22.7306C23.5414 21.7921 24.3427 20.9305 25.216 20.4813C25.9695 20.0936 26.0469 20.0029 26.0492 19.5052C26.051 19.1025 25.6491 18.6812 25.2719 18.6905C25.1492 18.6935 24.7404 18.8573 24.3634 19.0545ZM28.2271 18.9172C28.0301 19.0817 27.9496 19.2529 27.9508 19.5052C27.9531 20.0029 28.0305 20.0936 28.784 20.4813C29.6573 20.9305 30.4586 21.7921 30.8758 22.7306C31.217 23.4978 31.3447 23.6133 31.8525 23.6133C32.1733 23.6133 32.5898 23.1759 32.5898 22.839C32.5898 22.7378 32.4224 22.2838 32.2176 21.8302C31.7267 20.7421 30.6195 19.559 29.6126 19.0464C28.7801 18.6225 28.6 18.6057 28.2271 18.9172ZM31.4597 25.6314C31.3206 25.6909 31.0779 26.0441 30.8591 26.5054C30.3954 27.4834 29.7011 28.224 28.7922 28.7101C28.4013 28.9191 28.0516 29.1724 28.0153 29.2731C27.7908 29.8943 28.1154 30.483 28.6825 30.483C29.2347 30.483 30.3655 29.7914 31.1152 28.9953C31.8097 28.2578 32.5898 26.8793 32.5898 26.3898C32.5898 26.1401 32.0424 25.514 31.8333 25.5245C31.7563 25.5284 31.5882 25.5766 31.4597 25.6314ZM5.28114 35.7812C5.1609 35.9435 5.0625 36.1427 5.0625 36.2239C5.0625 36.5551 5.32132 36.938 5.62011 37.0485C6.04927 37.2074 9.89023 37.2023 10.3224 37.0423C10.8807 36.8357 11.0538 36.1363 10.6523 35.71C10.4534 35.4988 10.3008 35.486 7.97059 35.486H5.49967L5.28114 35.7812ZM44.1914 35.71C43.9228 35.9953 43.9199 36.5418 44.1855 36.8238C44.4794 37.136 44.8884 37.1871 46.7635 37.1463L48.4289 37.1101L48.6832 36.7958C48.9948 36.4107 49.0034 36.1652 48.7189 35.7812L48.5003 35.486H46.4513C44.5429 35.486 44.3879 35.5014 44.1914 35.71ZM0.229289 39.3294C0.00295314 39.5853 0 39.6393 0 43.4613C0 47.1074 0.0118125 47.3494 0.201656 47.5983L0.403207 47.8627H4.16602H7.92882L8.13037 47.5983C8.40343 47.2402 8.38593 46.7794 8.08798 46.4822C7.84867 46.2435 7.78233 46.2387 4.71298 46.2387H1.58203V42.9496C1.58203 39.7917 1.57328 39.6487 1.36339 39.3654C1.07768 38.9796 0.5535 38.963 0.229289 39.3294ZM40.8164 39.2942C40.5499 39.5773 40.5457 40.087 40.807 40.4299L41.0085 40.6943L44.4721 40.7292C48.2149 40.7668 48.6084 40.7227 48.8146 40.242C48.9854 39.8442 48.9701 39.7044 48.7189 39.3654L48.5003 39.0702H44.7638C41.1679 39.0702 41.0194 39.0786 40.8164 39.2942ZM52.6473 39.3294C52.4225 39.5836 52.418 39.654 52.418 42.9136V46.2387H49.2723H46.1267L45.8973 46.4978C45.6143 46.8178 45.6034 47.2492 45.8696 47.5983L46.0712 47.8627H49.834H53.5968L53.7983 47.5983C53.9881 47.3494 54 47.1079 54 43.4972C54 39.7853 53.9929 39.6509 53.7814 39.3654C53.4956 38.9796 52.9715 38.963 52.6473 39.3294Z" fill="#314882"/>
</svg>
