<svg width="54" height="54" viewBox="0 0 54 54" fill="none" xmlns="http://www.w3.org/2000/svg">
<path fill-rule="evenodd" clip-rule="evenodd" d="M12.2555 1.29158C11.6653 1.44848 11.0056 1.86328 10.5888 2.33971C10.2038 2.77978 9.7624 3.70767 9.7624 4.07705C9.7624 4.19487 9.59345 4.22428 8.91626 4.22428C8.45086 4.22428 7.88862 4.27966 7.66675 4.34734C7.13637 4.50927 6.41371 5.25186 6.25612 5.79687C6.1641 6.11519 6.13637 9.63721 6.13637 20.9825V35.7537L6.37696 36.0009C6.68351 36.316 7.05924 36.316 7.36579 36.0009L7.60638 35.7537V20.9915V6.22919L7.84697 5.98206C8.06601 5.75689 8.16479 5.73483 8.95213 5.73483H9.81679L10.0938 6.3882C10.388 7.08235 11.0777 8.0767 11.6624 8.64981L12.0164 8.99683L12.017 20.2811C12.0173 27.9256 12.051 31.6894 12.1215 31.9502C12.2544 32.4417 12.8353 33.1053 13.3394 33.3412C13.7086 33.514 14.2071 33.5247 21.9145 33.5247C29.6219 33.5247 30.1204 33.514 30.4896 33.3412C30.9937 33.1053 31.5747 32.4417 31.7076 31.9502C31.8564 31.3993 31.8521 9.35967 31.703 8.8063C31.559 8.27187 30.8137 7.50601 30.2936 7.35798C30.0349 7.28446 28.4584 7.2463 25.6586 7.246L21.4156 7.24539L21.1751 7.49262C20.8685 7.80762 20.8685 8.19372 21.1751 8.50872L21.4156 8.75595H25.6385H29.8615L30.102 9.00318L30.3426 9.2503V20.3691C30.3426 31.4652 30.3422 31.4884 30.1394 31.7532L29.9364 32.0185H21.952H13.9675L13.727 31.7713L13.4864 31.5242V20.8893C13.4864 15.0403 13.5236 10.2782 13.5691 10.3071C13.6145 10.336 13.8835 10.5199 14.167 10.7158C14.9684 11.27 15.1421 11.2231 16.6478 10.0453C18.309 8.74588 19.3514 7.5323 19.8165 6.35638L20.0424 5.78519L26.4213 5.7593L32.8001 5.73332L33.0413 5.98126L33.2826 6.22919V10.3947C33.2826 15.2303 33.2869 15.2619 34.073 16.1457C34.3437 16.45 34.8488 16.883 35.1953 17.108C36.2358 17.7832 36.1662 17.3406 36.2226 23.6439L36.2716 29.116L36.503 29.3085C36.8176 29.5702 37.1636 29.5503 37.4521 29.2537L37.6927 29.0066V23.6753C37.6927 18.6544 37.6814 18.3068 37.4996 17.704C37.2594 16.9079 36.9 16.4545 36.0515 15.8768C35.2944 15.3614 35.0057 15.0687 34.8572 14.6658C34.7894 14.482 34.7524 12.9414 34.752 10.2851C34.7518 7.60027 34.7141 6.04913 34.6431 5.78519C34.499 5.25075 33.7537 4.4849 33.2336 4.33686C32.9658 4.26073 30.8398 4.22518 26.5206 4.22468L20.1995 4.22397L20.0332 3.64241C19.4698 1.67184 17.3276 0.680811 15.4952 1.54284L14.9565 1.79621L14.4022 1.53548C13.8112 1.25744 12.8113 1.14385 12.2555 1.29158ZM14.1006 3.10294C14.3288 3.28008 14.6187 3.47806 14.7451 3.54291C14.994 3.67081 15.0129 3.66265 15.8441 3.06618C16.2009 2.81019 16.3571 2.76407 16.8675 2.76407C17.9807 2.76407 18.6805 3.51522 18.6805 4.71027C18.6805 5.93815 17.6774 7.35989 15.7643 8.84346L14.955 9.47105L14.1963 8.89291C13.1037 8.06049 11.9258 6.79806 11.5774 6.08619C10.7161 4.32629 11.5231 2.63326 13.1696 2.74564C13.5655 2.77273 13.7824 2.85591 14.1006 3.10294ZM36.4632 4.4715C36.3309 4.60745 36.2226 4.83605 36.2226 4.97955C36.2226 5.12306 36.3309 5.35166 36.4632 5.48761L36.7037 5.73483H39.1137H41.5236L41.7672 5.98518L42.0108 6.23553L41.9832 10.4917L41.9557 14.7478L41.7305 15.0722C41.6067 15.2506 41.1672 15.6358 40.7537 15.9282C40.3354 16.224 39.8821 16.6438 39.7315 16.8747C39.1806 17.7192 39.1627 17.9454 39.1627 24.0592V29.6527L33.6171 35.3421C28.8086 40.2753 27.9348 41.2182 27.0431 42.4365C25.3928 44.6914 24.6735 46.0839 24.8004 46.7791C24.8632 47.1225 25.1726 47.4655 25.5166 47.5726C26.103 47.7554 27.5686 46.9758 29.7244 45.3342C30.6664 44.6169 31.6337 43.7106 33.6011 41.7021L36.2226 39.0258V44.8922V50.7586L35.9821 51.0057L35.7416 51.253H21.9145H8.08747L7.84697 51.0057L7.60638 50.7586V44.5058V38.253L7.36579 38.0059C7.05924 37.6908 6.68351 37.6908 6.37696 38.0059L6.13637 38.253V44.5148C6.13637 49.1553 6.16734 50.8838 6.25612 51.1909C6.41371 51.7359 7.13637 52.4785 7.66675 52.6405C8.21908 52.8089 38.5225 52.819 39.1137 52.6509C39.6338 52.5029 40.3791 51.737 40.5231 51.2026C40.5983 50.9234 40.6318 48.2965 40.6321 42.6421L40.6327 34.4844L43.1635 31.8852L45.6941 29.2861L46.0545 29.6959C46.6699 30.396 46.6909 30.3597 44.1683 32.9683C42.6958 34.491 41.8979 35.3898 41.8525 35.5771C41.7496 36.0012 42.0632 36.3898 42.5417 36.4312C42.9057 36.4627 42.9517 36.423 45.1118 34.2157C46.3215 32.9795 47.4213 31.7777 47.5557 31.5449C48.1038 30.5954 47.9105 29.4607 47.0535 28.5963C46.6818 28.2215 46.6375 28.1327 46.7162 27.92C46.8489 27.5614 46.8266 26.7235 46.6746 26.3507C46.4719 25.8535 46.0238 25.363 45.5858 25.1586C45.0872 24.9259 44.1649 24.9118 43.7393 25.1304C43.5668 25.2189 42.7961 25.9327 42.0264 26.7165L40.6271 28.1414L40.6544 23.1566C40.6858 17.4282 40.6239 17.8092 41.6328 17.1337C42.4374 16.595 42.9215 16.0759 43.2004 15.4528C43.4229 14.9556 43.4261 14.8947 43.4541 10.5944C43.474 7.55304 43.4487 6.11026 43.3703 5.81107C43.2236 5.25156 42.4925 4.48963 41.9557 4.33686C41.718 4.26929 40.6076 4.22518 39.1338 4.22488L36.7037 4.22428L36.4632 4.4715ZM20.9274 12.6839C19.6453 12.8916 18.4076 13.5676 17.4976 14.5571C16.5907 15.5432 16.142 16.5094 15.9282 17.936C15.866 18.3515 15.7585 18.71 15.6828 18.7547C15.6088 18.7984 15.4262 19.0477 15.2768 19.3086C15.0446 19.7145 15.0057 19.892 15.0077 20.5383C15.0104 21.4184 15.2191 21.9236 15.7948 22.4429C16.0638 22.6856 16.191 22.9107 16.2986 23.3342C16.4596 23.9678 16.7765 24.6474 17.1497 25.1594L17.3984 25.5007L17.035 25.7735C16.0908 26.4821 15.39 27.5306 15.1027 28.6644C14.8847 29.5241 14.9109 29.9668 15.197 30.2607L15.4375 30.508H21.952H28.4664L28.6694 30.2426C29.012 29.7951 28.8869 28.7046 28.3692 27.6259C28.115 27.0964 27.1394 25.9652 26.7145 25.7072L26.4454 25.544L26.8228 24.944C27.2076 24.3321 27.5986 23.3901 27.5986 23.0745C27.5986 22.9782 27.8352 22.6462 28.1245 22.3369C28.7277 21.6919 28.9378 21.0683 28.8394 20.2147C28.78 19.6997 28.3723 18.8546 28.1387 18.7625C28.0612 18.732 27.98 18.4582 27.9387 18.0889C27.6719 15.6982 26.0529 13.6483 23.8727 12.9406C23.0178 12.6631 21.7423 12.552 20.9274 12.6839ZM22.921 14.2412C25.0668 14.7084 26.5206 16.6249 26.5206 18.9864C26.5206 19.4492 26.5551 19.5465 26.7749 19.7028C27.2759 20.0592 27.4026 20.2341 27.4026 20.5694C27.4026 20.9988 27.2214 21.2459 26.8052 21.3842C26.4516 21.5016 26.3855 21.6408 26.1311 22.8041C25.7115 24.7235 24.0461 25.9763 21.9145 25.9763C19.6893 25.9763 18.0752 24.6733 17.6393 22.525C17.4547 21.615 17.3717 21.4672 16.9877 21.3651C16.6409 21.2727 16.4302 20.9522 16.4279 20.5131C16.4265 20.2363 16.5758 20.043 17.0542 19.7028C17.2667 19.5516 17.3086 19.4441 17.3091 19.0482C17.3114 17.0491 18.2728 15.3975 19.898 14.6005C20.8849 14.1164 21.8314 14.0039 22.921 14.2412ZM19.5101 19.8294C19.1396 19.982 19.0269 20.2337 19.0252 20.9126C19.0237 21.5052 19.0484 21.5844 19.3068 21.8129C19.5191 22.0007 19.6542 22.0471 19.8458 21.998C20.3395 21.8714 20.4445 21.6774 20.4445 20.8908C20.4445 20.3272 20.4065 20.1324 20.273 20.0119C20.0387 19.8005 19.7488 19.7312 19.5101 19.8294ZM23.8745 19.8051C23.4753 19.9532 23.3845 20.1543 23.3845 20.8908C23.3845 21.6774 23.4895 21.8714 23.9832 21.998C24.1748 22.0471 24.31 22.0007 24.5222 21.8132C24.781 21.5844 24.8055 21.5058 24.8055 20.9022C24.8055 20.3734 24.7664 20.2032 24.6095 20.0481C24.3836 19.8249 24.0862 19.7265 23.8745 19.8051ZM20.7655 22.9075C20.4233 23.0553 20.2836 23.3887 20.3867 23.811C20.4744 24.1701 21.1368 24.587 21.7095 24.6435C22.9189 24.7629 23.899 23.7977 23.311 23.0663C23.0865 22.787 22.7042 22.7654 22.2671 23.0072C21.9189 23.2 21.9099 23.2 21.547 23.0086C21.3449 22.902 21.1571 22.8051 21.1295 22.7933C21.1021 22.7815 20.9382 22.8328 20.7655 22.9075ZM45.1407 26.6812C45.256 26.7997 45.3367 27.0169 45.3367 27.2085C45.3367 27.5056 44.7115 28.177 38.2325 34.8365L31.1284 42.1387L30.6137 41.6098L30.099 41.081L37.2031 33.7803C43.6979 27.1061 44.3346 26.4798 44.6259 26.4798C44.8141 26.4798 45.0251 26.5624 45.1407 26.6812ZM19.1925 26.8844C20.8771 27.6945 23.1405 27.6738 24.7542 26.8335L25.2606 26.5698L25.6757 26.8198C26.3595 27.2316 27.0414 28.0768 27.2498 28.7708L27.3178 28.9974H21.9145H16.5112L16.5792 28.7708C16.7845 28.0875 17.3904 27.3218 18.0872 26.8657C18.3268 26.7088 18.5313 26.5805 18.5417 26.5805C18.552 26.5805 18.8449 26.7173 19.1925 26.8844ZM39.1627 43.4026V50.7586L38.9221 51.0057C38.7274 51.2059 38.5829 51.253 38.1626 51.253H37.6437L37.6707 44.3799L37.6978 37.5069L38.4033 36.7768C38.7913 36.3752 39.1209 36.0467 39.1357 36.0467C39.1505 36.0467 39.1627 39.3568 39.1627 43.4026ZM29.5967 42.6818L30.0684 43.1739L29.103 43.9223C28.2542 44.5803 27.247 45.3045 26.8203 45.5635C26.6393 45.6734 26.9743 45.1015 27.7176 44.0317C28.3047 43.1869 29.0525 42.1896 29.0991 42.1896C29.1133 42.1896 29.3372 42.4111 29.5967 42.6818Z" fill="#314882"/>
</svg>
