<svg width="50" height="40" viewBox="0 0 50 40" fill="none" xmlns="http://www.w3.org/2000/svg">
<path fill-rule="evenodd" clip-rule="evenodd" d="M24.5213 0.482434C23.6901 0.9427 24.0378 2.26449 24.9901 2.26449C25.4759 2.26449 25.9489 1.79656 25.9489 1.31589C25.9489 0.59671 25.1534 0.132325 24.5213 0.482434ZM19.8337 1.0768C17.7252 1.62242 14.4853 3.11692 12.0654 4.65999C8.15077 7.15625 4.07874 10.7907 1.29473 14.2731C0.510836 15.2537 0.38351 15.5114 0.484374 15.9131C0.61285 16.4244 3.17365 19.3746 5.06561 21.1909C10.97 26.8591 17.5338 30.3386 23.4081 30.9144C25.1816 31.0882 28.0096 30.8945 29.808 30.476L30.3593 30.3476V31.7328C30.3593 33.2501 30.4389 33.5579 30.8839 33.7604C31.0582 33.8398 31.8986 33.8749 33.6236 33.8749H36.1119V36.3609C36.1119 39.0438 36.1441 39.2475 36.6052 39.4857C36.9931 39.6861 42.9011 39.6861 43.2889 39.4857C43.7501 39.2475 43.7822 39.0438 43.7822 36.3609V33.8749H46.2798C48.9919 33.8749 49.1969 33.8407 49.4203 33.3507C49.6001 32.9566 49.5804 27.0566 49.3982 26.7046C49.1598 26.2438 48.956 26.2118 46.2705 26.2118H43.7822V24.3181V22.4244L44.7482 21.4684C46.7046 19.5318 49.3706 16.4114 49.4964 15.9106C49.5967 15.5116 49.4682 15.2522 48.6855 14.2731C45.1124 9.80357 39.8755 5.48703 35.0573 3.03971C32.771 1.87846 30.1109 0.904289 29.2265 0.904289C28.7674 0.904289 28.3458 1.34904 28.3458 1.83344C28.3458 2.39189 28.7141 2.67686 29.8319 2.9832C33.2889 3.93055 37.1452 6.10956 41.0191 9.30451C42.4444 10.48 45.5681 13.5506 46.6478 14.8375L47.3514 15.6762L47.0928 16.0149C46.5368 16.7434 45.5315 17.8877 44.3409 19.1473L43.096 20.4644H39.9919C37.7896 20.4644 36.8149 20.4976 36.6366 20.5789C36.1462 20.8021 36.1119 21.0069 36.1119 23.7164V26.2118H33.6236C31.8986 26.2118 31.0582 26.2468 30.8839 26.3262C30.5048 26.4987 30.3593 26.8749 30.3593 27.6821V28.3956L29.6642 28.5489C28.4408 28.8186 27.0866 28.9933 25.7571 29.0527C20.2802 29.2975 14.2548 26.6599 8.11597 21.3305C6.75144 20.1458 4.45305 17.8272 3.3353 16.5077L2.62983 15.675L3.3353 14.8379C4.46964 13.4919 7.37426 10.6417 8.93055 9.34742C12.816 6.11598 16.4463 4.0454 20.0045 3.03128C21.2708 2.67035 21.6344 2.40444 21.6344 1.83929C21.6344 1.44971 21.2678 0.967318 20.9215 0.901224C20.792 0.876414 20.3024 0.95544 19.8337 1.0768ZM23.3353 6.24117C21.3535 6.61638 19.6203 7.52427 18.2254 8.91781C14.4828 12.6569 14.4832 18.6928 18.2264 22.4324C19.4252 23.6301 21.0945 24.573 22.7427 24.9833C23.8901 25.2689 25.9206 25.2902 27.0515 25.0285C30.8815 24.142 33.7584 21.1109 34.432 17.2522C35.2842 12.3698 32.1219 7.58327 27.2432 6.37126C26.2127 6.11531 24.331 6.05266 23.3353 6.24117ZM26.8132 8.23665C28.8125 8.78169 30.3294 9.86717 31.4243 11.5362C32.269 12.8237 32.6082 14.0095 32.6082 15.675C32.6082 17.8398 31.8949 19.5845 30.3992 21.079C27.4244 24.0508 22.6133 24.0695 19.6282 21.1208C18.0909 19.602 17.372 17.8668 17.372 15.675C17.372 14.0045 17.7097 12.8284 18.5653 11.5189C19.6945 9.79083 21.4711 8.5904 23.5519 8.14939C24.3204 7.98655 26.0673 8.03329 26.8132 8.23665ZM24.0906 11.9438C23.4839 12.0961 22.6204 12.6066 22.2012 13.061C21.986 13.2943 21.6732 13.7733 21.5064 14.1251C21.2316 14.7045 21.2029 14.8514 21.2029 15.6799C21.2029 16.5435 21.2231 16.6355 21.561 17.3187C21.9923 18.1906 22.5474 18.7336 23.4388 19.1555C24.018 19.4296 24.1664 19.4586 24.9901 19.4586C25.8138 19.4586 25.9622 19.4296 26.5414 19.1555C27.4328 18.7336 27.9879 18.1906 28.4192 17.3187C28.7575 16.6348 28.7773 16.5442 28.7773 15.675C28.7773 14.8057 28.7575 14.7151 28.4192 14.0312C27.7713 12.7215 26.6203 11.953 25.2057 11.8857C24.7971 11.8663 24.2953 11.8924 24.0906 11.9438ZM26.0433 14.0822C26.6149 14.4601 26.8597 14.9376 26.8597 15.675C26.8597 16.4219 26.6145 16.8901 26.016 17.2858C25.4811 17.6395 24.5448 17.6533 24.0009 17.3155C23.2751 16.8648 22.9341 15.9697 23.1636 15.1181C23.2956 14.6286 23.8823 14.0014 24.3392 13.8618C24.8419 13.708 25.6321 13.8102 26.0433 14.0822ZM41.8646 24.8755C41.8646 27.5851 41.8989 27.7899 42.3893 28.0131C42.5636 28.0925 43.4039 28.1275 45.129 28.1275H47.6173V30.0433V31.9591H45.1197C42.4076 31.9591 42.2026 31.9933 41.9792 32.4832C41.8997 32.6574 41.8646 33.497 41.8646 35.2204V37.7064H39.9471H38.0295V35.2204C38.0295 33.497 37.9944 32.6574 37.9149 32.4832C37.6915 31.9933 37.4865 31.9591 34.7744 31.9591H32.2768V30.0433V28.1275H34.7652C36.4902 28.1275 37.3306 28.0925 37.5049 28.0131C37.9953 27.7899 38.0295 27.5851 38.0295 24.8755V22.3802H39.9471H41.8646V24.8755Z" fill="#314882"/>
</svg>
