<svg width="50" height="49" viewBox="0 0 50 49" fill="none" xmlns="http://www.w3.org/2000/svg">
<path fill-rule="evenodd" clip-rule="evenodd" d="M24.7461 0.700085C24.634 0.721052 24.4398 0.849 24.3145 0.98436C24.0971 1.21958 24.0848 1.30735 24.0389 2.954L23.991 4.6775L22.8353 4.74254C21.5714 4.81364 19.8121 5.03608 18.6368 5.27345C18.2237 5.35683 17.8749 5.41047 17.8618 5.39262C17.8487 5.37478 17.6598 4.64268 17.4422 3.76577C17.2245 2.88886 16.9907 2.10303 16.9226 2.01965C16.7344 1.78881 16.2548 1.61718 15.9588 1.67481C15.5836 1.74766 15.2167 2.226 15.2167 2.64203C15.2167 2.8283 15.3677 3.59072 15.5523 4.33617C15.7369 5.08163 15.8879 5.75023 15.8879 5.82201C15.8879 5.90139 15.5029 6.07976 14.905 6.27734C14.3644 6.4559 13.47 6.7944 12.9176 7.02942C12.365 7.26455 11.8808 7.45686 11.8415 7.45686C11.802 7.45686 11.3778 6.66674 10.8986 5.70108C9.94437 3.77815 9.76381 3.57443 9.1215 3.69702C8.72805 3.77201 8.31225 4.24996 8.31225 4.62708C8.31225 4.77882 8.69995 5.69738 9.17377 6.6682L10.0353 8.43334L9.45426 8.79846C9.13474 8.99916 8.53779 9.41207 8.12765 9.71604L7.38207 10.2685L6.24093 9.09639C5.04896 7.87201 4.64525 7.59875 4.18141 7.70232C3.78843 7.79009 3.42163 8.27048 3.42163 8.69743C3.42163 9.01769 3.55713 9.18426 5.12568 10.793C7.3185 13.0417 7.14176 12.9943 8.75336 11.7652C12.0101 9.28119 15.0859 7.96065 19.4753 7.16186C25.7667 6.01695 32.8093 6.93687 37.8576 9.56303C38.9361 10.1241 40.6855 11.2794 41.7609 12.141C42.769 12.9486 42.7373 12.962 44.8212 10.8428C46.453 9.18328 46.5741 9.03554 46.5741 8.70484C46.5741 8.27029 46.2108 7.79087 45.8144 7.70232C45.3506 7.59875 44.9469 7.87191 43.7568 9.09434L42.6176 10.2645L41.8718 9.71399C41.4616 9.41119 40.8637 8.99916 40.5432 8.79846L39.9605 8.43334L40.822 6.6682C41.2958 5.69738 41.6835 4.7995 41.6835 4.67291C41.6835 4.15078 41.1947 3.65352 40.6813 3.65352C40.1894 3.65352 39.977 3.92804 39.0971 5.70108C38.618 6.66674 38.1903 7.45686 38.1466 7.45686C38.103 7.45686 37.6374 7.26572 37.1121 7.03205C36.5868 6.79839 35.7283 6.4638 35.2043 6.28845C34.6803 6.11321 34.2133 5.93396 34.1665 5.89027C34.1174 5.84473 34.2298 5.20684 34.4302 4.39312C34.622 3.61334 34.7791 2.81737 34.7791 2.62428C34.7791 2.13482 34.3527 1.70309 33.8692 1.70309C33.1265 1.70309 33.0039 1.90262 32.5145 3.9102C32.3201 4.70763 32.1496 5.37478 32.1356 5.39262C32.1216 5.41047 31.7721 5.35683 31.3589 5.27345C30.1837 5.03608 28.4244 4.81364 27.1605 4.74254L26.0048 4.6775L25.9568 2.94844C25.91 1.26122 25.903 1.21363 25.6691 0.985237C25.4166 0.738703 25.0857 0.636501 24.7461 0.700085ZM23.6074 9.70951C16.4222 10.1649 8.50231 14.5309 1.8062 21.7275C0.314749 23.3304 0.214827 23.5778 0.752412 24.3378C1.21597 24.9931 4.38595 28.1631 5.62721 29.2127C11.4841 34.1651 17.2996 36.9355 23.032 37.5037C25.7151 37.7696 29.2365 37.3506 32.0461 36.4311L32.9092 36.1485L38.8067 42.1206C45.4007 48.7979 45.0966 48.5418 46.4347 48.5445C47.9015 48.5475 49.1086 47.5646 49.4501 46.089C49.6045 45.4219 49.5248 44.7453 49.2092 44.0443C48.9939 43.5659 48.2791 42.7972 43.9261 38.3629L38.892 33.2347L39.7724 32.6671C42.4434 30.9452 45.4849 28.3939 47.828 25.9101C49.6196 24.0107 49.7587 23.7561 49.3639 23.0976C49.2636 22.9305 48.7352 22.3139 48.1896 21.7275C44.8353 18.1224 40.9919 15.0827 37.243 13.0699C32.4672 10.5057 28.0847 9.42562 23.6074 9.70951ZM28.2103 11.9296C31.9996 12.6049 35.4314 14.0737 39.2296 16.6457C41.5784 18.2362 43.4905 19.8297 45.6972 22.0357L47.2656 23.6037L46.5602 24.3729C44.5703 26.5435 41.1376 29.387 38.3456 31.1778L37.4531 31.7503L36.8778 31.2086C36.3608 30.7219 36.2596 30.667 35.88 30.667C35.4949 30.667 35.4018 30.7199 34.8306 31.2633C34.4858 31.5913 34.2038 31.8004 34.2038 31.7279C34.2038 31.6554 33.6841 31.0665 33.0491 30.4192L31.8943 29.242L32.3413 28.5648C32.8745 27.7569 33.171 27.1017 33.508 25.9859C33.7336 25.2393 33.7584 25.0021 33.7584 23.5967C33.7584 22.1762 33.735 21.9583 33.4973 21.1663C32.8757 19.0957 31.6109 17.3078 29.9405 16.1391C28.2897 14.9841 25.9402 14.4098 23.9422 14.6733C20.8667 15.0786 18.3696 16.8904 17.0411 19.6807C16.2897 21.2591 16.0186 22.754 16.1788 24.4356C16.7706 30.6491 23.2349 34.4069 28.733 31.7338C29.1787 31.5172 29.7564 31.1842 30.0168 30.994L30.4902 30.648L31.6039 31.7673C32.2162 32.3829 32.7891 32.9247 32.8768 32.9714C33.0108 33.0428 32.9367 33.1627 32.4084 33.7291C31.8365 34.3423 31.7161 34.4225 31.0505 34.6335C29.1319 35.2415 27.0472 35.5601 24.9499 35.5658C18.2902 35.5838 11.0116 31.9134 4.14324 25.0734L2.70712 23.6433L3.9994 22.3212C9.64528 16.5447 16.1483 12.7863 22.0252 11.9035C22.5789 11.8204 23.1615 11.733 23.3197 11.7094C24.0153 11.6056 27.1959 11.7488 28.2103 11.9296ZM26.3198 16.779C28.4477 17.226 30.1687 18.5576 31.093 20.4723C31.6561 21.6388 31.8347 22.3932 31.8322 23.5967C31.8279 25.7647 31.0039 27.564 29.3602 28.995C27.4034 30.6987 24.3348 31.0647 21.9505 29.8787C20.2148 29.0153 18.7767 27.1802 18.3249 25.2518C18.1163 24.3616 18.1137 22.8138 18.3194 21.9876C19.2257 18.3479 22.7782 16.035 26.3198 16.779ZM24.7374 17.6696C24.6205 17.6914 24.4156 17.8414 24.2819 18.003C23.9505 18.4036 23.9582 18.8694 24.3027 19.2614C24.5281 19.5181 24.6638 19.5742 25.2376 19.6481C27.3007 19.9137 28.5558 21.143 28.8868 23.2224C29.0376 24.1698 29.2357 24.4812 29.7499 24.5793C30.4232 24.7077 30.8423 24.2439 30.8453 23.3669C30.8517 21.512 29.7406 19.5934 28.0186 18.4858C27.1961 17.9567 25.4821 17.5303 24.7374 17.6696ZM20.6168 25.7819C19.7975 26.301 19.9446 27.0272 21.0809 28.0729C22.0694 28.9826 23.5634 29.5894 24.8227 29.5928C25.3033 29.594 25.4011 29.5592 25.6618 29.2942C26.0629 28.8862 26.0731 28.3577 25.6872 27.9709C25.467 27.7502 25.276 27.6801 24.6469 27.5886C23.5913 27.4352 22.9089 27.094 22.1312 26.3304C21.3884 25.6011 21.079 25.4891 20.6168 25.7819ZM47.2551 44.6515C47.6722 45.2222 47.6489 45.795 47.1906 46.2345C46.9031 46.5103 46.7768 46.563 46.4027 46.563H45.9572L40.1048 40.6159L34.2524 34.669L35.0659 33.8373L35.8795 33.0056L41.4282 38.6385C44.4801 41.7364 47.1021 44.4424 47.2551 44.6515Z" fill="white"/>
</svg>
