<svg width="54" height="54" viewBox="0 0 54 54" fill="none" xmlns="http://www.w3.org/2000/svg">
<path fill-rule="evenodd" clip-rule="evenodd" d="M5.7846 2.77317C5.5242 3.03092 5.47684 3.14524 5.53496 3.37574C5.70402 4.04648 5.53179 4.02049 10.0086 4.05045L14.0803 4.0778L15.2932 6.33806C15.9603 7.5813 16.5964 8.69698 16.707 8.81745C16.8932 9.0206 17.0183 9.03657 18.4208 9.03657H19.9337V19.5234C19.9337 27.1391 19.9666 30.0816 20.0537 30.2709C20.1989 30.5862 20.6335 30.7508 21.3205 30.7508H21.8321V33.1566V35.5625L22.091 35.8187C22.3132 36.0386 22.4478 36.0749 23.0402 36.0749H23.7305V38.0352C23.7305 39.6456 23.7601 40.0372 23.8957 40.2289C23.9866 40.3573 24.5296 40.8138 25.1024 41.2431L26.144 42.0239L26.1765 44.945C26.2082 47.792 26.2149 47.8719 26.4404 48.0951C26.7436 48.3949 27.2564 48.3949 27.5596 48.0951C27.7851 47.872 27.7918 47.7919 27.8235 44.9524L27.8559 42.0386L28.9008 41.2459C29.4755 40.8098 30.0186 40.35 30.1076 40.2242C30.2392 40.0383 30.2695 39.6284 30.2695 38.0352V36.0749H30.9598C31.5522 36.0749 31.6868 36.0386 31.909 35.8187L32.1679 35.5625V33.1566V30.7508H32.6795C33.3665 30.7508 33.8011 30.5862 33.9463 30.2709C34.0258 30.0982 34.0663 29.1287 34.0663 27.4004V24.7908L33.8074 24.5346C33.4775 24.2079 33.0731 24.2079 32.7432 24.5346C32.4847 24.7903 32.4843 24.7943 32.4843 26.9879V29.1849H27H21.5157V19.1107V9.03657H27H32.4843V15.6182V22.1999L32.7432 22.4561C33.0731 22.7827 33.4775 22.7827 33.8074 22.4561L34.0663 22.1999V15.6182V9.03657H35.5792C36.9817 9.03657 37.1068 9.0206 37.293 8.81745C37.4036 8.69698 38.0397 7.5813 38.7068 6.33806L39.9197 4.0778L43.9913 4.05045C48.4682 4.02049 48.296 4.04648 48.465 3.37574C48.5232 3.14555 48.476 3.03113 48.2177 2.77547L47.8987 2.45967H35.0711C24.0192 2.45967 22.2022 2.48086 21.9452 2.6124C21.4608 2.86034 21.3788 3.30319 21.7344 3.75052L21.9529 4.0256H30.0135C34.4468 4.0256 38.074 4.05389 38.074 4.08834C38.074 4.1229 37.6825 4.8972 37.2039 5.80909L36.3338 7.46699H27H17.6662L16.7961 5.80909C16.3176 4.8972 15.926 4.1229 15.926 4.08834C15.926 4.05389 16.7246 4.0256 17.7006 4.0256C19.419 4.0256 19.4823 4.01798 19.7044 3.78403C19.9874 3.48577 19.9983 3.08375 19.7322 2.75835L19.5305 2.51187L12.8183 2.48347L6.10595 2.45508L5.7846 2.77317ZM26.0123 10.5057L25.7344 10.722V15.0915V19.461L26.0197 19.6831C26.2928 19.8958 26.3964 19.9039 28.4419 19.8733C30.3258 19.8452 30.6011 19.8195 30.767 19.6551C30.9401 19.4836 30.9573 19.1366 30.9849 15.2745C31.0054 12.3953 30.9784 10.9931 30.8987 10.8027C30.7077 10.3462 30.417 10.2893 28.2749 10.2893C26.4267 10.2893 26.271 10.3042 26.0123 10.5057ZM29.4257 15.0915V18.3278H28.3711H27.3164V15.0915V11.8552H28.3711H29.4257V15.0915ZM25.2551 22.9686C25.1127 23.1096 24.9961 23.3466 24.9961 23.4953C24.9961 23.6441 25.1127 23.8811 25.2551 24.022C25.5053 24.2698 25.5628 24.2783 27 24.2783C28.4372 24.2783 28.4947 24.2698 28.745 24.022C28.8873 23.8811 29.0039 23.6441 29.0039 23.4953C29.0039 23.3466 28.8873 23.1096 28.745 22.9686C28.4947 22.7208 28.4372 22.7124 27 22.7124C25.5628 22.7124 25.5053 22.7208 25.2551 22.9686ZM23.5558 26.0077C23.3366 26.2246 23.2978 26.3386 23.352 26.6066C23.4853 27.2666 23.412 27.2535 27 27.2535C30.588 27.2535 30.5147 27.2666 30.648 26.6066C30.7022 26.3386 30.6634 26.2246 30.4442 26.0077L30.1736 25.7398H27H23.8264L23.5558 26.0077ZM30.5859 32.6299V34.509H27H23.4141V32.6299V30.7508H27H30.5859V32.6299ZM28.684 37.7714L28.6805 39.4678L27.8403 40.0779L27 40.6881L26.1597 40.0779L25.3195 39.4678L25.316 37.7714L25.3125 36.0749H27H28.6875L28.684 37.7714ZM21.7957 46.3922C21.5638 46.6458 21.5696 47.2728 21.8058 47.4765C22.0918 47.7232 23.9973 48.8859 24.241 48.9624C24.556 49.0614 25.0854 48.7549 25.169 48.425C25.2846 47.9691 25.0114 47.6662 23.8045 46.9121C22.583 46.1491 22.1261 46.0309 21.7957 46.3922ZM30.1646 46.9202C29.556 47.3064 28.991 47.7405 28.9093 47.8848C28.6903 48.2708 28.8324 48.679 29.255 48.8785C29.6848 49.0813 29.838 49.0203 31.3241 48.0536C32.2756 47.4347 32.3278 47.3816 32.3594 47.0001C32.4035 46.4697 32.1603 46.1985 31.6506 46.2095C31.3711 46.2156 30.9803 46.4025 30.1646 46.9202ZM0.219107 50.2346C-0.136422 50.6819 -0.054474 51.1248 0.429935 51.3727C0.881228 51.6037 53.1188 51.6037 53.5701 51.3727C54.0545 51.1248 54.1364 50.6819 53.7809 50.2346L53.5624 49.9595H27H0.437635L0.219107 50.2346Z" fill="#314882"/>
</svg>
