<svg width="23" height="28" viewBox="0 0 23 28" fill="none" xmlns="http://www.w3.org/2000/svg">
<path d="M11.5 0C8.58369 0.00344047 5.78779 1.16347 3.72564 3.22563C1.66348 5.28778 0.503452 8.08367 0.500012 11C0.496519 13.3832 1.27499 15.7018 2.71601 17.6C2.71601 17.6 3.01601 17.995 3.06501 18.052L11.5 28L19.939 18.047C19.983 17.994 20.284 17.6 20.284 17.6L20.285 17.597C21.7253 15.6996 22.5034 13.3821 22.5 11C22.4966 8.08367 21.3365 5.28778 19.2744 3.22563C17.2122 1.16347 14.4163 0.00344047 11.5 0ZM11.5 15C10.7089 15 9.93553 14.7654 9.27773 14.3259C8.61993 13.8864 8.10724 13.2616 7.80449 12.5307C7.50174 11.7998 7.42253 10.9956 7.57687 10.2196C7.73121 9.44372 8.11217 8.73098 8.67158 8.17157C9.23099 7.61216 9.94373 7.2312 10.7197 7.07686C11.4956 6.92252 12.2998 7.00173 13.0307 7.30448C13.7616 7.60723 14.3864 8.11992 14.8259 8.77772C15.2654 9.43552 15.5 10.2089 15.5 11C15.4987 12.0605 15.0768 13.0771 14.327 13.827C13.5771 14.5768 12.5605 14.9987 11.5 15Z" fill="#314882"/>
</svg>
