<svg width="43" height="42" viewBox="0 0 43 42" fill="none" xmlns="http://www.w3.org/2000/svg">
<path d="M13.625 11.8125C12.5807 11.8125 11.5792 12.2273 10.8408 12.9658C10.1023 13.7042 9.6875 14.7057 9.6875 15.75V16.1457L21.5 22.5068L33.3125 16.1477V15.75C33.3125 14.7057 32.8977 13.7042 32.1592 12.9658C31.4208 12.2273 30.4193 11.8125 29.375 11.8125H13.625ZM33.3125 18.3822L21.9666 24.4912C21.8232 24.5684 21.6629 24.6089 21.5 24.6089C21.3371 24.6089 21.1768 24.5684 21.0334 24.4912L9.6875 18.3822V27.5625C9.6875 28.6068 10.1023 29.6083 10.8408 30.3467C11.5792 31.0852 12.5807 31.5 13.625 31.5H29.375C30.4193 31.5 31.4208 31.0852 32.1592 30.3467C32.8977 29.6083 33.3125 28.6068 33.3125 27.5625V18.3822Z" fill="#90B0FF"/>
</svg>
