<svg width="26" height="15" viewBox="0 0 26 15" fill="none" xmlns="http://www.w3.org/2000/svg">
<path fill-rule="evenodd" clip-rule="evenodd" d="M12.2056 0.0240598C7.91287 0.263878 3.86134 2.49317 0.631269 6.39257C-0.212118 7.41071 -0.211458 7.59161 0.639494 8.62166C3.86292 12.5237 7.92841 14.7517 12.2413 14.9799C17.1228 15.2382 21.7351 13.0021 25.3687 8.61551C26.2121 7.59737 26.2115 7.41647 25.3605 6.38642C23.0058 3.53607 20.2044 1.57771 17.1064 0.616368C16.144 0.317728 14.978 0.0995197 14.0662 0.0472934C13.071 -0.00965838 12.8565 -0.0123165 12.2056 0.0240598ZM14.0738 2.31582C15.533 2.58212 16.9352 3.54439 17.6946 4.80073C18.6111 6.31686 18.7077 8.15084 17.9529 9.70055C17.6583 10.3053 17.3768 10.6987 16.8919 11.1832C14.178 13.8948 9.55421 13.0657 7.98024 9.58532C7.41223 8.32933 7.40152 6.79507 7.95166 5.48587C8.48687 4.21216 9.65072 3.0969 10.9727 2.59103C11.9781 2.20634 12.9844 2.117 14.0738 2.31582ZM12.4669 4.69632C11.6413 4.86944 10.9105 5.36877 10.492 6.04579C10.1844 6.54349 10.0811 6.91301 10.0847 7.50404C10.0882 8.07435 10.1405 8.30437 10.3757 8.78258C10.5917 9.22195 11.2228 9.83183 11.6854 10.0485C13.3147 10.8112 15.2097 10.0354 15.796 8.36546C15.9638 7.88774 15.9685 7.1388 15.8068 6.64056C15.4378 5.50344 14.3606 4.71109 13.1269 4.6692C12.8756 4.66068 12.5786 4.67289 12.4669 4.69632Z" fill="white"/>
</svg>
