<svg width="43" height="42" viewBox="0 0 43 42" fill="none" xmlns="http://www.w3.org/2000/svg">
<path d="M10.7888 12.9205L13.8422 9.86987C14.0576 9.65353 14.3136 9.48188 14.5956 9.36477C14.8775 9.24767 15.1798 9.18743 15.4851 9.1875C16.1072 9.1875 16.6921 9.4312 17.1308 9.86987L20.4164 13.1556C20.6328 13.371 20.8044 13.627 20.9215 13.9089C21.0386 14.1909 21.0989 14.4932 21.0988 14.7984C21.0988 15.4206 20.8551 16.0055 20.4164 16.4442L18.0138 18.8468C18.5762 20.0864 19.3581 21.2141 20.3218 22.1755C21.2831 23.1416 22.4107 23.9263 23.6505 24.4921L26.0531 22.0895C26.2685 21.8732 26.5245 21.7015 26.8064 21.5844C27.0883 21.4673 27.3906 21.4071 27.6959 21.4071C28.3181 21.4071 28.9029 21.6508 29.3416 22.0895L32.6301 25.3723C32.8467 25.5881 33.0185 25.8446 33.1356 26.1271C33.2528 26.4095 33.3129 26.7123 33.3125 27.0181C33.3125 27.6402 33.0688 28.2251 32.6301 28.6638L29.5824 31.7115C28.8829 32.414 27.9167 32.8125 26.9247 32.8125C26.7154 32.8125 26.5147 32.7953 26.3169 32.7609C22.452 32.1244 18.6188 30.0687 15.5252 26.9779C12.4345 23.89 10.3817 20.0596 9.73659 16.1833C9.54163 14.9991 9.93442 13.7806 10.7888 12.9205Z" fill="#90B0FF"/>
</svg>
