<svg width="32" height="32" viewBox="0 0 32 32" fill="none" xmlns="http://www.w3.org/2000/svg">
<path d="M4.325 7.19375L7.65312 3.86875C7.88789 3.63295 8.16694 3.44586 8.47423 3.31822C8.78152 3.19058 9.111 3.12492 9.44375 3.125C10.1219 3.125 10.7594 3.39063 11.2375 3.86875L14.8187 7.45C15.0546 7.68477 15.2416 7.96382 15.3693 8.27111C15.4969 8.5784 15.5626 8.90788 15.5625 9.24063C15.5625 9.91875 15.2969 10.5563 14.8187 11.0344L12.2 13.6531C12.813 15.0043 13.6652 16.2334 14.7156 17.2812C15.7634 18.3342 16.9924 19.1895 18.3437 19.8062L20.9625 17.1875C21.1973 16.9517 21.4763 16.7646 21.7836 16.637C22.0909 16.5093 22.4204 16.4437 22.7531 16.4438C23.4312 16.4438 24.0687 16.7094 24.5469 17.1875L28.1312 20.7656C28.3673 21.0008 28.5546 21.2804 28.6822 21.5882C28.8099 21.8961 28.8754 22.2261 28.875 22.5594C28.875 23.2375 28.6094 23.875 28.1312 24.3531L24.8094 27.675C24.0469 28.4406 22.9937 28.875 21.9125 28.875C21.6844 28.875 21.4656 28.8563 21.25 28.8188C17.0375 28.125 12.8594 25.8844 9.4875 22.5156C6.11875 19.15 3.88125 14.975 3.17812 10.75C2.96562 9.45937 3.39375 8.13125 4.325 7.19375Z" fill="white"/>
</svg>
