<svg width="26" height="26" viewBox="0 0 26 26" fill="none" xmlns="http://www.w3.org/2000/svg">
<path d="M1.325 4.19375L4.65312 0.86875C4.88789 0.632949 5.16694 0.445856 5.47423 0.31822C5.78152 0.190584 6.111 0.12492 6.44375 0.125C7.12187 0.125 7.75937 0.390625 8.2375 0.86875L11.8187 4.45C12.0546 4.68477 12.2416 4.96382 12.3693 5.27111C12.4969 5.5784 12.5626 5.90788 12.5625 6.24063C12.5625 6.91875 12.2969 7.55625 11.8187 8.03438L9.2 10.6531C9.81299 12.0043 10.6652 13.2334 11.7156 14.2812C12.7634 15.3342 13.9924 16.1895 15.3437 16.8062L17.9625 14.1875C18.1973 13.9517 18.4763 13.7646 18.7836 13.637C19.0909 13.5093 19.4204 13.4437 19.7531 13.4438C20.4312 13.4438 21.0687 13.7094 21.5469 14.1875L25.1312 17.7656C25.3673 18.0008 25.5546 18.2804 25.6822 18.5882C25.8099 18.8961 25.8754 19.2261 25.875 19.5594C25.875 20.2375 25.6094 20.875 25.1312 21.3531L21.8094 24.675C21.0469 25.4406 19.9937 25.875 18.9125 25.875C18.6844 25.875 18.4656 25.8563 18.25 25.8188C14.0375 25.125 9.85937 22.8844 6.4875 19.5156C3.11875 16.15 0.881248 11.975 0.178123 7.75C-0.0343761 6.45937 0.393749 5.13125 1.325 4.19375Z" fill="white"/>
</svg>
